<?xml version="1.0" standalone="no"?>
<!DOCTYPE svg PUBLIC "-//W3C//DTD SVG 20010904//EN"
 "http://www.w3.org/TR/2001/REC-SVG-20010904/DTD/svg10.dtd">
<svg version="1.0" xmlns="http://www.w3.org/2000/svg"
 width="200.000000pt" height="200.000000pt" viewBox="0 0 200.000000 200.000000"
 preserveAspectRatio="xMidYMid meet">
<metadata>
Created by potrace 1.11, written by Peter Selinger 2001-2013
</metadata>
<g transform="translate(0.000000,200.000000) scale(0.100000,-0.100000)"
fill="#000000" stroke="none">
<path d="M886 1671 c-3 -5 -9 -54 -12 -109 -6 -93 -9 -101 -31 -111 -17 -8
-23 -17 -18 -30 4 -13 -5 -25 -35 -45 -118 -78 -183 -269 -159 -471 18 -151
57 -262 124 -349 37 -48 37 -49 17 -65 -11 -9 -25 -26 -31 -38 -7 -13 -18 -23
-25 -23 -7 0 -34 -11 -60 -24 l-48 -24 -45 20 c-94 41 -235 16 -321 -57 -24
-21 -54 -63 -73 -100 -26 -53 -31 -75 -31 -134 0 -38 3 -74 7 -80 4 -8 282
-11 931 -11 l924 0 -2 192 -3 193 -60 24 c-117 46 -250 28 -346 -49 l-36 -28
-22 44 c-16 34 -32 50 -64 64 -23 11 -51 20 -63 20 -11 0 -37 16 -57 35 -24
23 -49 37 -77 41 -22 4 -39 9 -38 13 2 3 15 29 29 56 44 84 50 134 38 336 -8
144 -15 197 -34 258 -39 121 -93 185 -183 211 -23 8 -47 19 -53 27 -6 7 -20
13 -29 13 -14 0 -24 17 -41 68 -22 66 -56 142 -64 142 -2 0 -6 -4 -9 -9z m63
-208 c-7 -8 -24 -13 -38 -11 -24 3 -26 6 -24 48 2 25 6 65 9 90 l6 45 29 -79
c23 -62 27 -82 18 -93z m131 -304 c24 -45 -45 -104 -95 -81 -25 12 -40 46 -33
78 6 35 110 37 128 3z m-218 -6 c39 -35 5 -93 -57 -93 -65 0 -77 76 -15 97 47
16 50 16 72 -4z"/>
<path d="M1004 1146 c-4 -10 -2 -22 4 -28 8 -8 13 -7 18 6 4 10 2 22 -4 28 -8
8 -13 7 -18 -6z"/>
<path d="M803 1124 c-8 -22 15 -44 26 -25 10 16 4 41 -10 41 -5 0 -12 -7 -16
-16z"/>
</g>
</svg>
